<?xml version="1.0" standalone="no"?>
<!DOCTYPE svg PUBLIC "-//W3C//DTD SVG 20010904//EN"
 "http://www.w3.org/TR/2001/REC-SVG-20010904/DTD/svg10.dtd">
<svg version="1.0" xmlns="http://www.w3.org/2000/svg"
 width="700.000000pt" height="700.000000pt" viewBox="0 0 700.000000 700.000000"
 preserveAspectRatio="xMidYMid meet">
<metadata>
Created by potrace 1.14, written by Peter Selinger 2001-2017
</metadata>
<g transform="translate(0.000000,700.000000) scale(0.100000,-0.100000)"
fill="#000000" stroke="none">
<path d="M1625 5424 c-330 -34 -626 -108 -885 -222 -146 -64 -209 -76 -361
-69 -156 7 -164 -1 -164 -153 1 -113 12 -129 148 -195 134 -65 190 -109 211
-168 9 -23 27 -127 41 -232 102 -766 254 -1025 686 -1169 455 -152 1005 -123
1389 75 280 143 424 371 505 799 85 448 88 458 171 506 90 53 243 42 315 -23
50 -45 70 -103 103 -288 42 -235 65 -342 98 -445 126 -394 386 -600 875 -692
157 -29 512 -32 668 -5 393 69 621 195 749 413 109 186 166 394 226 824 17
123 37 235 45 250 24 47 94 100 198 151 145 71 151 78 155 193 3 72 0 101 -12
125 -9 17 -20 31 -24 32 -4 0 -79 2 -167 3 -170 2 -203 10 -320 68 -153 78
-447 161 -705 199 -205 31 -619 34 -796 6 -276 -44 -513 -129 -715 -258 -49
-32 -97 -54 -140 -63 -196 -46 -675 -43 -849 4 -19 5 -81 39 -138 74 -181 113
-396 191 -657 237 -96 17 -168 22 -365 24 -135 2 -263 1 -285 -1z m470 -394
c337 -25 559 -91 651 -193 67 -73 87 -136 92 -274 7 -211 -28 -459 -88 -626
-29 -78 -99 -194 -142 -234 -71 -66 -238 -138 -408 -175 -302 -66 -831 23
-969 164 -83 85 -150 297 -201 640 -54 363 -42 531 41 574 43 22 277 80 399
98 223 35 401 42 625 26z m3419 -20 c165 -25 401 -83 436 -108 70 -51 85 -184
50 -457 -57 -449 -135 -696 -247 -781 -91 -69 -320 -131 -568 -155 -236 -22
-471 22 -668 123 -213 111 -316 358 -343 828 -17 296 71 426 338 504 258 75
676 94 1002 46z"/>
<path d="M2165 4867 c-143 -47 -257 -197 -306 -402 -28 -120 -23 -322 11 -430
49 -156 142 -283 247 -335 69 -35 160 -39 237 -10 121 46 229 192 277 376 26
100 29 284 5 394 -23 106 -92 243 -157 308 -93 92 -216 131 -314 99z"/>
<path d="M4688 4867 c-186 -70 -308 -272 -325 -538 -18 -287 102 -548 293
-636 77 -35 175 -30 253 12 106 58 200 194 243 354 28 102 30 314 4 416 -25
97 -86 220 -140 281 -86 98 -231 147 -328 111z"/>
<path d="M1679 2401 c-44 -44 -40 -84 18 -168 157 -230 387 -455 636 -620 97
-64 291 -169 355 -191 l32 -11 0 175 c0 152 2 174 16 174 8 0 65 -11 125 -25
162 -38 323 -63 443 -71 l106 -7 0 -112 c0 -61 3 -220 7 -353 l6 -242 77 0 77
0 6 242 c4 133 7 292 7 355 l0 113 45 0 c87 0 241 21 415 57 96 20 187 38 202
41 l28 4 2 -176 3 -176 95 43 c345 156 704 459 923 780 58 84 62 124 18 168
-50 49 -83 42 -229 -51 -291 -186 -651 -341 -977 -421 -219 -54 -377 -72 -610
-73 -342 0 -624 53 -979 185 -163 60 -472 215 -617 308 -147 94 -180 101 -230
52z"/>
</g>
</svg>
