<?xml version="1.0" standalone="no"?>
<!DOCTYPE svg PUBLIC "-//W3C//DTD SVG 20010904//EN"
 "http://www.w3.org/TR/2001/REC-SVG-20010904/DTD/svg10.dtd">
<svg version="1.0" xmlns="http://www.w3.org/2000/svg"
 width="700.000000pt" height="700.000000pt" viewBox="0 0 700.000000 700.000000"
 preserveAspectRatio="xMidYMid meet">
<metadata>
Created by potrace 1.14, written by Peter Selinger 2001-2017
</metadata>
<g transform="translate(0.000000,700.000000) scale(0.100000,-0.100000)"
fill="#000000" stroke="none">
<path d="M4053 6210 c-68 -27 -144 -96 -177 -162 -15 -30 -323 -1093 -717
-2473 -672 -2353 -691 -2422 -685 -2485 11 -120 86 -227 196 -279 74 -35 210
-37 282 -4 64 29 133 95 162 157 27 56 1381 4783 1399 4882 9 52 8 72 -7 128
-28 104 -84 172 -181 223 -70 37 -196 43 -272 13z"/>
<path d="M1525 5027 c-22 -8 -56 -22 -75 -31 -19 -10 -321 -304 -671 -655
-504 -504 -641 -646 -660 -686 -20 -42 -24 -65 -24 -150 0 -88 3 -106 25 -147
17 -32 218 -241 642 -667 340 -341 635 -634 657 -651 43 -35 144 -70 201 -70
21 0 67 9 103 20 84 26 164 96 204 178 24 50 28 68 28 147 0 74 -5 99 -24 140
-19 39 -133 159 -522 550 l-499 500 490 490 c565 564 555 551 555 705 0 102
-28 173 -95 240 -82 82 -232 121 -335 87z"/>
<path d="M5287 5030 c-95 -24 -182 -98 -226 -190 -22 -46 -26 -69 -26 -140 0
-154 -10 -141 555 -705 l490 -490 -499 -500 c-390 -392 -503 -511 -522 -550
-19 -41 -23 -66 -24 -140 0 -77 4 -98 27 -147 33 -70 96 -133 168 -167 45 -21
70 -26 140 -26 154 0 117 -30 837 689 503 504 637 642 660 686 25 50 28 65 28
155 0 90 -3 105 -29 155 -22 44 -156 183 -660 686 -699 699 -677 681 -812 689
-38 2 -86 0 -107 -5z"/>
</g>
</svg>
